# Blender v3.1.2 OBJ File: ''
# www.blender.org
mtllib bushy_leaves_2.mtl
o leaves_Cube.001
v -0.500000 -0.500000 0.500000
v -0.500000 0.500000 0.500000
v -0.500000 -0.500000 -0.500000
v -0.500000 0.500000 -0.500000
v 0.500000 -0.500000 0.500000
v 0.500000 0.500000 0.500000
v 0.500000 -0.500000 -0.500000
v 0.500000 0.500000 -0.500000
v 0.719340 -1.011971 0.677100
v -0.719340 -0.987724 -0.712005
v 0.719340 0.987724 0.712005
v -0.719340 1.011971 -0.677100
v 0.694658 -0.987293 -0.736683
v -0.694658 -1.012402 0.701778
v 0.694658 1.012402 -0.701778
v -0.694658 0.987293 0.736683
v 0.000000 -0.500000 -1.414214
v -1.414214 -0.500000 0.000000
v 1.414214 -0.500000 0.000000
v 0.000000 -0.500000 1.414214
v 0.707107 0.000000 -0.707107
v -0.707107 0.000000 0.707107
v -0.707107 0.000000 -0.707107
v 0.707107 0.000000 0.707107
v 0.000000 0.500000 0.000000
vt 1.000000 -0.000000
vt 1.000000 1.000000
vt 0.000000 1.000000
vt -0.000000 0.000000
vt 1.000000 -0.000000
vt 1.000000 1.000000
vt 0.000000 1.000000
vt -0.000000 0.000000
vt 1.000000 -0.000000
vt 1.000000 1.000000
vt 0.000000 1.000000
vt -0.000000 0.000000
vt 1.000000 -0.000000
vt 1.000000 1.000000
vt 0.000000 1.000000
vt -0.000000 0.000000
vt 1.000000 1.000000
vt 0.000000 1.000000
vt 1.000000 -0.000000
vt -0.000000 0.000000
vt 0.000000 0.000000
vt 1.000000 0.000000
vt 1.000000 1.000000
vt 0.000000 1.000000
vt 0.000000 0.000000
vt 1.000000 0.000000
vt 1.000000 1.000000
vt 0.000000 1.000000
vt 0.500000 0.500000
vt 1.000000 0.500000
vt 1.000000 1.000000
vt 0.500000 1.000000
vt 0.500000 0.000000
vt 1.000000 0.000000
vt 0.000000 0.000000
vt 0.000000 0.500000
vt 0.000000 1.000000
vn -1.0000 0.0000 0.0000
vn 0.0000 0.0000 -1.0000
vn 1.0000 0.0000 0.0000
vn 0.0000 0.0000 1.0000
vn 0.0000 -1.0000 0.0000
vn 0.0000 1.0000 0.0000
vn 0.6947 0.0126 -0.7192
vn -0.7193 0.0121 -0.6946
vn 0.0000 0.8165 -0.5774
vn 0.5774 0.8165 0.0000
vn 0.0000 0.8165 0.5774
vn -0.5774 0.8165 0.0000
usemtl Leaves
s off
f 1/1/1 2/2/1 4/3/1 3/4/1
f 3/5/2 4/6/2 8/7/2 7/8/2
f 7/9/3 8/10/3 6/11/3 5/12/3
f 5/13/4 6/14/4 2/15/4 1/16/4
f 3/5/5 7/17/5 5/18/5 1/16/5
f 8/19/6 4/6/6 2/15/6 6/20/6
usemtl Outer
f 9/21/7 10/22/7 12/23/7 11/24/7
f 13/25/8 14/26/8 16/27/8 15/28/8
f 25/29/9 21/30/9 17/31/9 23/32/9
f 24/33/10 19/34/10 21/30/10 25/29/10
f 20/35/11 24/33/11 25/29/11 22/36/11
f 22/36/12 25/29/12 23/32/12 18/37/12
